<svg width="40" height="40" viewBox="0 0 40 40" fill="none" xmlns="http://www.w3.org/2000/svg">
<path d="M18.8268 6.39515C18.8509 6.3952 18.8749 6.39525 18.899 6.39529C18.9569 6.3954 19.0149 6.39558 19.0729 6.3958C19.0672 6.54531 19.0476 6.69308 19.0288 6.8414C19.024 6.87933 19.0192 6.91726 19.0145 6.95519C19.0062 7.02135 18.9979 7.08751 18.9895 7.15366C18.9772 7.25131 18.9649 7.34897 18.9527 7.44663C18.9322 7.60982 18.9117 7.77299 18.8912 7.93616C18.8707 8.09835 18.8503 8.26053 18.83 8.42272C18.8287 8.43286 18.8274 8.44301 18.8261 8.45345C18.8209 8.49455 18.8158 8.53564 18.8106 8.57673C18.7501 9.05891 18.6894 9.54107 18.6287 10.0232C18.6154 10.1291 18.602 10.235 18.5887 10.3409C18.5261 10.8384 18.4635 11.3359 18.4008 11.8334C18.3154 12.511 18.2302 13.1886 18.1453 13.8662C18.1441 13.875 18.143 13.8839 18.1419 13.893C18.1067 14.1735 18.0716 14.4539 18.0364 14.7343C18.0002 15.0234 17.964 15.3125 17.9278 15.6015C17.9267 15.6104 17.9255 15.6192 17.9244 15.6284C17.8595 16.1457 17.7946 16.663 17.7294 17.1803C17.7285 17.1877 17.7276 17.1951 17.7266 17.2028C17.6977 17.432 17.6689 17.6613 17.64 17.8906C17.6102 18.1267 17.5805 18.3628 17.5507 18.5989C17.5498 18.6063 17.5489 18.6137 17.5479 18.6212C17.4837 19.1309 17.4197 19.6406 17.3558 20.1504C17.3547 20.159 17.3537 20.1676 17.3525 20.1765C17.3184 20.4493 17.2842 20.722 17.25 20.9948C17.2147 21.2762 17.1794 21.5577 17.1442 21.8392C17.1431 21.8478 17.142 21.8564 17.1409 21.8653C17.0771 22.3738 17.0133 22.8822 16.9492 23.3906C16.9483 23.398 16.9474 23.4053 16.9464 23.4129C16.9167 23.6489 16.887 23.8849 16.8572 24.1209C16.8283 24.3504 16.7994 24.5798 16.7705 24.8092C16.7696 24.8166 16.7687 24.824 16.7677 24.8317C16.7024 25.3504 16.6372 25.8692 16.5722 26.388C16.5711 26.3969 16.57 26.4057 16.5688 26.4149C16.5349 26.6859 16.5009 26.957 16.4669 27.228C16.4298 27.5241 16.3927 27.8201 16.3556 28.1162C16.3545 28.125 16.3534 28.1338 16.3523 28.1429C16.2848 28.6809 16.2173 29.2188 16.1496 29.7568C16.1486 29.7648 16.1476 29.7728 16.1465 29.781C16.1027 30.129 16.0589 30.477 16.015 30.825C16.0014 30.9334 15.9877 31.0418 15.9741 31.1502C15.9696 31.1853 15.9652 31.2205 15.9608 31.2556C15.9146 31.6216 15.8686 31.9877 15.8228 32.3537C15.8147 32.4187 15.8066 32.4836 15.7984 32.5486C15.7958 32.5693 15.7932 32.5901 15.7906 32.6109C15.7868 32.6412 15.783 32.6716 15.7792 32.702C15.765 32.8155 15.7508 32.9291 15.7366 33.0427C15.7282 33.1101 15.7198 33.1776 15.7113 33.245C15.7057 33.29 15.7001 33.3351 15.6945 33.3802C15.6904 33.413 15.6863 33.4459 15.6821 33.4788C15.6807 33.4905 15.6793 33.5022 15.6778 33.5142C15.6765 33.5247 15.6751 33.5351 15.6738 33.5459C15.6726 33.555 15.6715 33.564 15.6703 33.5734C15.6667 33.5937 15.6667 33.5937 15.6562 33.6041C15.6298 33.6052 15.6036 33.6055 15.5771 33.6055C15.5644 33.6055 15.5644 33.6055 15.5515 33.6055C15.5229 33.6056 15.4942 33.6055 15.4656 33.6055C15.445 33.6055 15.4244 33.6056 15.4038 33.6056C15.3469 33.6057 15.29 33.6057 15.2331 33.6056C15.1718 33.6056 15.1105 33.6057 15.0492 33.6057C14.9289 33.6058 14.8085 33.6059 14.6882 33.6059C14.59 33.6059 14.4919 33.6059 14.3938 33.6059C14.3656 33.6059 14.3373 33.6059 14.309 33.606C14.302 33.606 14.295 33.606 14.2877 33.606C14.0897 33.606 13.8917 33.6061 13.6937 33.6061C13.6862 33.6061 13.6788 33.6061 13.6711 33.6061C13.6332 33.6061 13.5953 33.6061 13.5574 33.6061C13.5461 33.6061 13.5461 33.6061 13.5346 33.6061C13.5194 33.6061 13.5042 33.6061 13.489 33.6061C13.2536 33.6061 13.0183 33.6061 12.783 33.6063C12.5181 33.6064 12.2532 33.6065 11.9883 33.6065C11.9599 33.6065 11.9314 33.6065 11.903 33.6065C11.8925 33.6065 11.8925 33.6065 11.8817 33.6065C11.7773 33.6065 11.6728 33.6066 11.5683 33.6066C9.26457 33.6084 9.26457 33.6084 8.1293 33.0675C7.95035 32.8794 7.85748 32.6393 7.81054 32.3873C7.80892 32.3787 7.80731 32.3701 7.80565 32.3612C7.80041 32.3311 7.79592 32.301 7.79166 32.2708C7.78978 32.2576 7.7879 32.2444 7.78597 32.2308C7.76533 32.0711 7.76714 31.9106 7.76757 31.75C7.76759 31.7348 7.76761 31.7196 7.76764 31.7045C7.76813 31.4608 7.77612 31.2191 7.79937 30.9764C7.80213 30.9473 7.80475 30.9182 7.80734 30.8891C7.83798 30.548 7.88056 30.2082 7.92314 29.8684C7.92782 29.831 7.9325 29.7936 7.93718 29.7562C8.01606 29.126 8.09879 28.4964 8.18158 27.8668C8.20702 27.6733 8.23242 27.4798 8.2578 27.2863C8.2638 27.2405 8.26981 27.1948 8.27581 27.149C8.28308 27.0936 8.29035 27.0382 8.29762 26.9828C8.31356 26.8613 8.32951 26.7397 8.34546 26.6182C8.4133 26.1014 8.48099 25.5845 8.54853 25.0676C8.55023 25.0546 8.55023 25.0546 8.55197 25.0413C8.57952 24.8305 8.60707 24.6196 8.63461 24.4088C8.66136 24.204 8.68812 23.9992 8.71489 23.7944C8.71605 23.7855 8.71721 23.7766 8.71841 23.7674C8.73253 23.6594 8.74665 23.5513 8.76077 23.4432C8.76785 23.389 8.77494 23.3348 8.78202 23.2806C8.8551 22.7214 8.92822 22.1621 9.00137 21.6028C9.00258 21.5936 9.00378 21.5844 9.00502 21.5749C9.06228 21.1372 9.11954 20.6995 9.1768 20.2618C9.17924 20.2432 9.18167 20.2246 9.1841 20.206C9.1902 20.1595 9.19629 20.1129 9.20238 20.0664C9.20482 20.0477 9.20726 20.0291 9.2097 20.0104C9.22313 19.9077 9.23657 19.805 9.25 19.7024C9.30552 19.278 9.36104 18.8536 9.41653 18.4292C9.41916 18.4092 9.42178 18.3891 9.4244 18.3691C9.44798 18.1888 9.47155 18.0085 9.49513 17.8282C9.51066 17.7095 9.52619 17.5907 9.54172 17.4719C9.54299 17.4622 9.54426 17.4525 9.54558 17.4424C9.58327 17.1542 9.62098 16.866 9.65871 16.5778C9.66476 16.5316 9.67082 16.4853 9.67687 16.4391C9.67866 16.4255 9.67866 16.4255 9.68048 16.4116C9.68643 16.3661 9.69238 16.3207 9.69833 16.2752C9.69949 16.2663 9.70066 16.2574 9.70186 16.2482C9.70421 16.2303 9.70656 16.2123 9.70891 16.1944C9.71472 16.15 9.72053 16.1056 9.72634 16.0613C9.78088 15.6447 9.8353 15.2281 9.88938 14.8114C9.89971 14.7318 9.91006 14.6522 9.92042 14.5726C9.92181 14.5619 9.92321 14.5512 9.92464 14.5402C9.93139 14.4884 9.93814 14.4366 9.9449 14.3848C9.95715 14.2907 9.96937 14.1967 9.98147 14.1027C10.0706 13.4103 10.0706 13.4103 10.1354 13.1145C10.1378 13.1034 10.1403 13.0923 10.1428 13.0808C10.1572 13.0158 10.1729 12.9512 10.1894 12.8867C10.1918 12.8773 10.1942 12.868 10.1966 12.8584C10.2486 12.6533 10.3094 12.4511 10.375 12.25C10.3773 12.243 10.3795 12.2361 10.3818 12.2289C10.6501 11.4057 11.0435 10.6143 11.7812 9.5833C11.7904 9.57143 11.7996 9.55956 11.8087 9.54769C11.8626 9.4782 11.9181 9.41048 11.9757 9.34405C12.0063 9.30873 12.036 9.2729 12.0651 9.23629C12.126 9.16128 12.1935 9.09228 12.26 9.02235C12.2864 8.99449 12.3125 8.96636 12.3386 8.93821C12.4275 8.84228 12.5171 8.74707 12.6167 8.6622C12.636 8.6453 12.6539 8.6276 12.6719 8.60934C12.71 8.57067 12.7504 8.53529 12.7917 8.49996C12.802 8.49097 12.8124 8.48197 12.8232 8.4727C12.985 8.33286 13.1505 8.19951 13.3229 8.07288C13.3353 8.06379 13.3353 8.06379 13.3479 8.05451C13.4523 7.97788 13.558 7.9038 13.6667 7.8333C13.6789 7.82531 13.6789 7.82531 13.6914 7.81716C14.5477 7.25909 15.5063 6.87533 18.3229 6.40621C18.3308 6.40577 18.3387 6.40532 18.3469 6.40486C18.5069 6.39593 18.6665 6.39453 18.8268 6.39515Z" fill="#1E1E1E"/>
<path d="M20.6634 17.9465C20.6763 17.9464 20.6892 17.9464 20.7025 17.9464C20.7381 17.9464 20.7738 17.9463 20.8094 17.9464C20.8482 17.9464 20.887 17.9463 20.9258 17.9463C21.0028 17.9462 21.0797 17.9462 21.1566 17.9462C21.2488 17.9462 21.341 17.9461 21.4332 17.946C21.656 17.9459 21.8788 17.9458 22.1016 17.9457C22.2071 17.9457 22.3126 17.9457 22.4181 17.9456C22.7796 17.9455 23.141 17.9454 23.5025 17.9454C23.5251 17.9454 23.5478 17.9454 23.5705 17.9454C23.5932 17.9453 23.616 17.9453 23.6387 17.9453C23.6843 17.9453 23.7299 17.9453 23.7755 17.9453C23.7868 17.9453 23.7981 17.9453 23.8098 17.9453C24.1761 17.9453 24.5424 17.9451 24.9087 17.9449C25.2963 17.9446 25.684 17.9445 26.0716 17.9445C26.1142 17.9445 26.1569 17.9445 26.1995 17.9445C26.21 17.9445 26.2205 17.9445 26.2313 17.9445C26.3996 17.9444 26.5679 17.9443 26.7363 17.9442C26.9058 17.944 27.0752 17.944 27.2447 17.9441C27.3452 17.9441 27.4457 17.9441 27.5461 17.9439C27.6135 17.9438 27.6809 17.9438 27.7483 17.9439C27.7865 17.944 27.8247 17.944 27.8629 17.9439C28.8114 17.9408 29.7389 18.2342 30.4389 18.8886C30.4595 18.9078 30.4801 18.9268 30.501 18.9455C30.5588 18.9974 30.6135 19.0506 30.6646 19.1091C30.6887 19.1366 30.7135 19.1633 30.7384 19.19C30.7981 19.2558 30.8526 19.325 30.9063 19.3958C30.9119 19.4031 30.9175 19.4104 30.9233 19.4179C31.0786 19.6217 31.2103 19.8379 31.3334 20.0624C31.338 20.0706 31.3425 20.0788 31.3472 20.0873C31.7301 20.7792 31.9451 21.5758 32.0834 22.3749C32.0855 22.3869 32.0855 22.3869 32.0876 22.3992C32.1355 22.6786 32.169 22.9593 32.1952 23.2415C32.1978 23.2689 32.2005 23.2962 32.2033 23.3236C32.2611 23.9104 32.2593 24.5281 32.198 25.1145C32.1971 25.1234 32.1962 25.1324 32.1952 25.1416C32.1244 25.8386 31.9806 26.5222 31.7605 27.1874C31.7558 27.2018 31.7511 27.2161 31.7463 27.2304C31.679 27.4346 31.6037 27.6349 31.5209 27.8333C31.5183 27.8396 31.5156 27.8459 31.5129 27.8525C31.3469 28.2509 31.1557 28.6415 30.9343 29.0121C30.9169 29.0413 30.8998 29.0706 30.8826 29.1C30.6485 29.5013 30.3868 29.8899 30.0972 30.2534C30.0831 30.2712 30.0692 30.2891 30.0553 30.307C30.0016 30.3762 29.9464 30.4437 29.889 30.5099C29.8576 30.5462 29.827 30.5829 29.797 30.6204C29.7569 30.6697 29.7146 30.7165 29.6712 30.7628C29.6433 30.7925 29.616 30.8226 29.5893 30.8533C29.4832 30.9752 29.3694 31.09 29.2553 31.2043C29.2499 31.2097 29.2446 31.2151 29.2391 31.2206C29.1848 31.2752 29.1301 31.3288 29.0716 31.3789C29.0369 31.409 29.004 31.4409 28.9708 31.4726C28.9156 31.5247 28.8597 31.5746 28.8002 31.6219C28.7716 31.6452 28.744 31.6692 28.7163 31.6936C28.6338 31.7663 28.548 31.8336 28.46 31.8996C28.4377 31.9165 28.4154 31.9336 28.3932 31.9508C28.0689 32.2017 27.7228 32.4256 27.3647 32.6249C27.3551 32.6302 27.3456 32.6355 27.3358 32.641C26.5744 33.0632 25.7611 33.3565 24.6355 33.6041C24.6418 33.5019 24.652 33.4008 24.6649 33.2992C24.6668 33.2837 24.6688 33.2682 24.6707 33.2526C24.676 33.2102 24.6813 33.1678 24.6867 33.1254C24.6925 33.0793 24.6983 33.0331 24.704 32.987C24.7141 32.9066 24.7242 32.8262 24.7343 32.7458C24.7492 32.6275 24.764 32.5091 24.7789 32.3908C24.805 32.1821 24.8312 31.9733 24.8575 31.7646C24.8803 31.5829 24.9031 31.4012 24.9259 31.2195C24.9274 31.2074 24.9289 31.1954 24.9305 31.183C24.9366 31.1343 24.9427 31.0856 24.9488 31.037C25.0766 30.0185 25.2046 29.0002 25.4133 27.3427C25.43 27.2103 25.4467 27.078 25.4634 26.9456C25.4651 26.9323 25.4667 26.919 25.4685 26.9052C25.5181 26.511 25.5676 26.1168 25.6169 25.7225C25.6191 25.7049 25.6191 25.7049 25.6213 25.687C25.6498 25.4592 25.6782 25.2315 25.7066 25.0037C25.7147 24.9383 25.7229 24.8728 25.731 24.8074C25.7374 24.7567 25.7437 24.706 25.75 24.6553C25.7537 24.625 25.7575 24.5946 25.7613 24.5643C25.7638 24.544 25.7664 24.5237 25.7689 24.5034C25.7704 24.4914 25.7719 24.4793 25.7734 24.467C25.7747 24.4566 25.776 24.4463 25.7773 24.4357C25.7815 24.4049 25.7866 24.3743 25.7917 24.3437C25.7739 24.3437 25.7739 24.3437 25.7556 24.3437C25.2296 24.3439 24.7036 24.344 24.1776 24.3441C24.1696 24.3441 24.1616 24.3441 24.1534 24.3441C23.9798 24.3441 23.8061 24.3442 23.6325 24.3442C23.5473 24.3442 23.4621 24.3442 23.3769 24.3442C23.3684 24.3442 23.36 24.3442 23.3512 24.3442C23.0774 24.3443 22.8036 24.3444 22.5298 24.3445C22.248 24.3446 21.9662 24.3446 21.6844 24.3446C21.6444 24.3446 21.6044 24.3447 21.5645 24.3447C21.5566 24.3447 21.5487 24.3447 21.5406 24.3447C21.4149 24.3447 21.2893 24.3447 21.1636 24.3448C21.0367 24.3448 20.9098 24.3449 20.7828 24.3448C20.7143 24.3448 20.6458 24.3449 20.5772 24.3449C20.3408 24.3451 20.1043 24.3453 19.8678 24.3408C19.8497 24.3405 19.8315 24.3402 19.8133 24.34C19.4644 24.3352 19.4644 24.3352 19.3456 24.2336C19.2676 24.1518 19.265 24.049 19.2654 23.9414C19.2654 23.9343 19.2654 23.9272 19.2654 23.9199C19.2666 23.7101 19.2963 23.5025 19.3231 23.2947C19.3309 23.2344 19.3384 23.174 19.3459 23.1136C19.359 23.009 19.3722 22.9044 19.3855 22.7998C19.4058 22.64 19.4257 22.4802 19.4455 22.3204C19.4536 22.2556 19.4616 22.1908 19.4697 22.1261C19.4706 22.1189 19.4715 22.1117 19.4724 22.1043C19.4974 21.9031 19.5226 21.7019 19.5479 21.5007C19.5488 21.4932 19.5498 21.4857 19.5507 21.478C19.5517 21.4705 19.5526 21.463 19.5536 21.4553C19.5545 21.4478 19.5555 21.4403 19.5564 21.4326C19.5583 21.4174 19.5602 21.4022 19.5621 21.3871C19.5764 21.2734 19.5906 21.1597 19.6048 21.0461C19.6822 20.4274 19.76 19.8087 19.8415 19.1905C19.8464 19.1529 19.8513 19.1153 19.8563 19.0777C19.973 18.1837 19.973 18.1837 20.1418 18.0471C20.2944 17.9494 20.4883 17.9462 20.6634 17.9465Z" fill="#1E1E1E"/>
<path d="M22.4643 9.457C22.4808 9.45698 22.4973 9.45696 22.5138 9.45693C22.5585 9.45687 22.6032 9.45687 22.6479 9.45688C22.6963 9.45688 22.7448 9.45682 22.7932 9.45677C22.8879 9.45669 22.9826 9.45666 23.0773 9.45665C23.1543 9.45665 23.2314 9.45663 23.3084 9.45659C23.5274 9.4565 23.7464 9.45645 23.9653 9.45646C23.9771 9.45646 23.9889 9.45646 24.001 9.45646C24.0128 9.45646 24.0246 9.45646 24.0367 9.45646C24.2277 9.45647 24.4187 9.45637 24.6097 9.45622C24.8063 9.45607 25.003 9.456 25.1996 9.45601C25.3098 9.45601 25.42 9.45598 25.5301 9.45587C25.624 9.45578 25.7178 9.45575 25.8116 9.45582C25.8593 9.45586 25.9071 9.45586 25.9548 9.45577C26.4525 9.45488 26.4525 9.45488 26.677 9.50201C26.6932 9.50535 26.6932 9.50535 26.7096 9.50875C26.8871 9.54783 27.0596 9.62813 27.1666 9.78131C27.2996 10.003 27.3341 10.2533 27.3358 10.5077C27.3359 10.5267 27.3359 10.5267 27.3361 10.546C27.338 10.8395 27.3327 11.131 27.3063 11.4236C27.3047 11.4423 27.3047 11.4423 27.3029 11.4614C27.2883 11.6223 27.2719 11.7831 27.2552 11.9439C27.2543 11.9523 27.2535 11.9608 27.2526 11.9695C27.2088 12.392 27.1593 12.8138 27.109 13.2356C27.1006 13.306 27.0922 13.3765 27.0839 13.447C26.8545 15.3926 26.8545 15.3926 26.5416 15.6459C26.2385 15.8629 25.8284 15.8664 25.469 15.866C25.4519 15.8661 25.4349 15.8661 25.4178 15.8661C25.3715 15.8662 25.3252 15.8662 25.2789 15.8662C25.2287 15.8662 25.1785 15.8662 25.1283 15.8663C25.0302 15.8663 24.9321 15.8664 24.834 15.8664C24.7541 15.8664 24.6743 15.8664 24.5944 15.8664C24.3675 15.8665 24.1405 15.8666 23.9136 15.8666C23.9014 15.8666 23.8892 15.8666 23.8766 15.8666C23.8644 15.8666 23.8521 15.8666 23.8395 15.8666C23.6416 15.8666 23.4437 15.8667 23.2458 15.8668C23.0421 15.867 22.8383 15.867 22.6346 15.867C22.5204 15.867 22.4062 15.8671 22.2921 15.8672C22.1948 15.8673 22.0976 15.8673 22.0003 15.8672C21.9509 15.8672 21.9014 15.8672 21.8519 15.8673C20.9082 15.8689 20.9082 15.8689 20.6725 15.6478C20.5197 15.4802 20.5065 15.2648 20.5065 15.0493C20.5065 15.0207 20.5061 14.9921 20.5057 14.9636C20.5031 14.5639 20.5681 14.1613 20.6161 13.7655C20.6211 13.724 20.6261 13.6824 20.6311 13.6409C20.728 12.8378 20.8293 12.035 20.9568 11.0996C20.9601 11.0758 20.9634 11.0519 20.9666 11.028C20.9901 10.8559 21.0173 10.6846 21.0477 10.5136C21.0492 10.505 21.0507 10.4965 21.0522 10.4877C21.1061 10.184 21.1784 9.83984 21.4431 9.64748C21.4685 9.6317 21.4941 9.61772 21.5208 9.60423C21.5289 9.59978 21.5371 9.59534 21.5454 9.59076C21.8174 9.45308 22.166 9.45666 22.4643 9.457Z" fill="#1E1E1E"/>
</svg>
